<?xml version="1.0" standalone="no"?>
<!DOCTYPE svg PUBLIC "-//W3C//DTD SVG 20010904//EN"
 "http://www.w3.org/TR/2001/REC-SVG-20010904/DTD/svg10.dtd">
<svg version="1.0" xmlns="http://www.w3.org/2000/svg"
 width="330.000000pt" height="330.000000pt" viewBox="0 0 330.000000 330.000000"
 preserveAspectRatio="xMidYMid meet">
<metadata>
Created by potrace 1.11, written by Peter Selinger 2001-2013
</metadata>
<g transform="translate(0.000000,330.000000) scale(0.100000,-0.100000)"
fill="#000000" stroke="none">
<path d="M612 3202 c-278 -307 -472 -612 -510 -805 -13 -65 -14 -93 -5 -151
20 -126 37 -172 100 -268 72 -110 168 -184 308 -238 78 -30 261 -38 345 -14
145 40 283 140 364 265 80 123 112 293 80 429 -42 181 -251 506 -495 771 -13
14 -41 44 -61 67 l-37 41 -89 -97z m162 -451 c107 -144 190 -284 220 -371 42
-121 -30 -274 -160 -340 -42 -21 -62 -25 -134 -24 -84 1 -109 8 -176 49 -44
27 -102 109 -120 172 -20 68 -12 116 34 213 49 105 240 387 263 389 3 1 36
-39 73 -88z"/>
<path d="M2340 2960 c-107 -168 -394 -620 -638 -1005 -245 -385 -464 -729
-487 -765 -23 -36 -117 -184 -209 -330 -93 -146 -178 -281 -191 -300 -13 -19
-95 -149 -183 -287 -141 -221 -158 -253 -139 -254 129 -6 342 -2 352 6 11 8
168 250 200 307 9 16 400 631 500 788 23 36 91 142 150 235 59 94 122 193 140
220 18 28 155 244 305 480 150 237 287 453 305 480 182 281 455 719 451 723
-3 2 -86 5 -184 6 l-179 1 -193 -305z"/>
<path d="M2565 1577 c-296 -317 -511 -637 -566 -841 -77 -285 110 -606 406
-698 212 -67 461 -5 612 151 116 119 175 256 176 406 1 102 -16 169 -70 285
-89 187 -292 464 -498 677 l-40 41 -20 -21z m100 -532 c81 -109 171 -256 205
-335 60 -139 -6 -298 -152 -369 -54 -26 -71 -29 -137 -27 -143 5 -253 91 -291
229 -17 63 -9 113 34 203 53 112 243 394 265 394 3 0 37 -43 76 -95z"/>
</g>
</svg>
